<svg width="10" height="14" viewBox="0 0 10 14" fill="none" xmlns="http://www.w3.org/2000/svg">
<mask id="path-1-outside-1_1725_175" maskUnits="userSpaceOnUse" x="0" y="0" width="10" height="14" fill="black">
<rect fill="white" width="10" height="14"/>
<path d="M7.63277 7L1.16609 1.76682C1.11285 1.72465 1.07076 1.67458 1.04225 1.61951C1.01375 1.56444 0.999393 1.50547 1.00002 1.446C1.00065 1.38654 1.01624 1.32776 1.04591 1.27308C1.07557 1.21839 1.11871 1.16888 1.17284 1.12741C1.22696 1.08594 1.29099 1.05333 1.36122 1.03148C1.43146 1.00962 1.5065 0.99895 1.582 1.00008C1.6575 1.00121 1.73197 1.01413 1.8011 1.03807C1.87022 1.06201 1.93263 1.09652 1.98471 1.13958L8.83823 6.68638C8.94196 6.77034 9 6.88286 9 7C9 7.11714 8.94196 7.22966 8.83823 7.31362L1.98471 12.8604C1.93263 12.9035 1.87022 12.938 1.8011 12.9619C1.73197 12.9859 1.6575 12.9988 1.582 12.9999C1.5065 13.0011 1.43146 12.9904 1.36122 12.9685C1.29099 12.9467 1.22696 12.9141 1.17284 12.8726C1.11871 12.8311 1.07557 12.7816 1.04591 12.7269C1.01624 12.6722 1.00065 12.6135 1.00002 12.554C0.999393 12.4945 1.01375 12.4356 1.04225 12.3805C1.07076 12.3254 1.11285 12.2754 1.16609 12.2332L7.63277 7Z"/>
</mask>
<path d="M7.63277 7L1.16609 1.76682C1.11285 1.72465 1.07076 1.67458 1.04225 1.61951C1.01375 1.56444 0.999393 1.50547 1.00002 1.446C1.00065 1.38654 1.01624 1.32776 1.04591 1.27308C1.07557 1.21839 1.11871 1.16888 1.17284 1.12741C1.22696 1.08594 1.29099 1.05333 1.36122 1.03148C1.43146 1.00962 1.5065 0.99895 1.582 1.00008C1.6575 1.00121 1.73197 1.01413 1.8011 1.03807C1.87022 1.06201 1.93263 1.09652 1.98471 1.13958L8.83823 6.68638C8.94196 6.77034 9 6.88286 9 7C9 7.11714 8.94196 7.22966 8.83823 7.31362L1.98471 12.8604C1.93263 12.9035 1.87022 12.938 1.8011 12.9619C1.73197 12.9859 1.6575 12.9988 1.582 12.9999C1.5065 13.0011 1.43146 12.9904 1.36122 12.9685C1.29099 12.9467 1.22696 12.9141 1.17284 12.8726C1.11871 12.8311 1.07557 12.7816 1.04591 12.7269C1.01624 12.6722 1.00065 12.6135 1.00002 12.554C0.999393 12.4945 1.01375 12.4356 1.04225 12.3805C1.07076 12.3254 1.11285 12.2754 1.16609 12.2332L7.63277 7Z" fill="white"/>
<path d="M7.63277 7L8.26184 6.22265L9.22241 7L8.26184 7.77735L7.63277 7ZM1.16609 1.76682L1.78704 0.982899L1.79516 0.989471L1.16609 1.76682ZM1.00002 1.446L1.99996 1.45655L1.00002 1.446ZM1.98471 1.13958L1.35556 1.91694L1.34747 1.91025L1.98471 1.13958ZM8.83823 6.68638L9.46734 5.90906L9.46736 5.90908L8.83823 6.68638ZM8.83823 7.31362L9.46736 8.09092L9.46734 8.09094L8.83823 7.31362ZM1.98471 12.8604L1.34744 12.0897L1.3556 12.0831L1.98471 12.8604ZM1.00002 12.554L1.99996 12.5434L1.00002 12.554ZM1.16609 12.2332L1.7952 13.0106L1.78701 13.0171L1.16609 12.2332ZM7.0037 7.77735L0.537022 2.54417L1.79516 0.989471L8.26184 6.22265L7.0037 7.77735ZM0.545177 2.55069C0.391624 2.42906 0.253778 2.27161 0.154188 2.07923L1.93032 1.15979C1.88774 1.07754 1.83408 1.02023 1.78701 0.982942L0.545177 2.55069ZM0.154188 2.07923C0.0538216 1.88534 -0.00235176 1.66555 7.53403e-05 1.43546L1.99996 1.45655C2.00114 1.34538 1.97367 1.24354 1.93032 1.15979L0.154188 2.07923ZM7.53403e-05 1.43546C0.00250244 1.20543 0.0632467 0.987359 0.1669 0.79627L1.92492 1.74988C1.96924 1.66817 1.99879 1.56765 1.99996 1.45655L7.53403e-05 1.43546ZM0.1669 0.79627C0.269757 0.60665 0.409774 0.452284 0.564631 0.33363L1.78105 1.92119C1.82766 1.88547 1.88139 1.83013 1.92492 1.74988L0.1669 0.79627ZM0.564631 0.33363C0.719266 0.215145 0.890374 0.130698 1.06409 0.07664L1.65836 1.98631C1.69161 1.97596 1.73466 1.95673 1.78105 1.92119L0.564631 0.33363ZM1.06409 0.07664C1.23801 0.0225168 1.41857 -0.0024811 1.59699 0.000193834L1.56701 1.99997C1.59442 2.00038 1.6249 1.99672 1.65836 1.98631L1.06409 0.07664ZM1.59699 0.000193834C1.7754 0.00286865 1.95554 0.0332739 2.12841 0.093156L1.47378 1.98298C1.5084 1.99498 1.53961 1.99956 1.56701 1.99997L1.59699 0.000193834ZM2.12841 0.093156C2.30108 0.152968 2.47047 0.243665 2.62194 0.368911L1.34747 1.91025C1.39478 1.94937 1.43936 1.97106 1.47378 1.98298L2.12841 0.093156ZM2.61382 0.362264L9.46734 5.90906L8.20912 7.4637L1.3556 1.9169L2.61382 0.362264ZM9.46736 5.90908C9.76886 6.15311 10 6.5367 10 7H8C8 7.22902 8.11506 7.38757 8.20909 7.46368L9.46736 5.90908ZM10 7C10 7.4633 9.76886 7.84689 9.46736 8.09092L8.20909 6.53632C8.11506 6.61243 8 6.77098 8 7H10ZM9.46734 8.09094L2.61382 13.6377L1.3556 12.0831L8.20912 6.5363L9.46734 8.09094ZM2.62194 13.6311C2.47047 13.7563 2.30107 13.847 2.12841 13.9068L1.47378 12.017C1.43937 12.0289 1.39479 12.0506 1.34747 12.0898L2.62194 13.6311ZM2.12841 13.9068C1.95554 13.9667 1.7754 13.9971 1.59699 13.9998L1.56701 12C1.53961 12.0004 1.5084 12.005 1.47378 12.017L2.12841 13.9068ZM1.59699 13.9998C1.41857 14.0025 1.23802 13.9775 1.06409 13.9234L1.65836 12.0137C1.6249 12.0033 1.59442 11.9996 1.56701 12L1.59699 13.9998ZM1.06409 13.9234C0.890379 13.8693 0.71927 13.7849 0.564631 13.6664L1.78105 12.0788C1.73465 12.0433 1.6916 12.024 1.65836 12.0137L1.06409 13.9234ZM0.564631 13.6664C0.40977 13.5477 0.269755 13.3933 0.1669 13.2037L1.92492 12.2501C1.88139 12.1699 1.82766 12.1145 1.78105 12.0788L0.564631 13.6664ZM0.1669 13.2037C0.0632458 13.0126 0.00250244 12.7946 7.53403e-05 12.5645L1.99996 12.5434C1.99879 12.4324 1.96924 12.3318 1.92492 12.2501L0.1669 13.2037ZM7.53403e-05 12.5645C-0.00235176 12.3344 0.0538216 12.1147 0.154188 11.9208L1.93032 12.8402C1.97367 12.7565 2.00114 12.6546 1.99996 12.5434L7.53403e-05 12.5645ZM0.154188 11.9208C0.253778 11.7284 0.391623 11.5709 0.545177 11.4493L1.78701 13.0171C1.83408 12.9798 1.88774 12.9225 1.93032 12.8402L0.154188 11.9208ZM0.537022 11.4558L7.0037 6.22265L8.26184 7.77735L1.79516 13.0105L0.537022 11.4558Z" fill="white" mask="url(#path-1-outside-1_1725_175)"/>
</svg>
