<svg width="24" height="24" viewBox="0 0 24 24" fill="none" xmlns="http://www.w3.org/2000/svg">
<path d="M7.5 9.59961L12 12.7496L16.5 9.59961" stroke="#042A2B" stroke-width="1.5" stroke-linecap="round" stroke-linejoin="round"/>
<path d="M3 16.8V7.8C3 7.32261 3.18964 6.86477 3.52721 6.52721C3.86477 6.18964 4.32261 6 4.8 6H19.2C19.6774 6 20.1352 6.18964 20.4728 6.52721C20.8104 6.86477 21 7.32261 21 7.8V16.8C21 17.2774 20.8104 17.7352 20.4728 18.0728C20.1352 18.4104 19.6774 18.6 19.2 18.6H4.8C4.32261 18.6 3.86477 18.4104 3.52721 18.0728C3.18964 17.7352 3 17.2774 3 16.8Z" stroke="#042A2B" stroke-width="1.5"/>
</svg>
