<svg width="67" height="46" viewBox="0 0 67 46" fill="none" xmlns="http://www.w3.org/2000/svg">
<path d="M0 1.94531C0 1.42938 0.204952 0.934585 0.569769 0.569769C0.934585 0.204952 1.42938 0 1.94531 0H59.0078C59.5237 0 60.0185 0.204952 60.3834 0.569769C60.7482 0.934585 60.9531 1.42938 60.9531 1.94531C60.9531 2.46124 60.7482 2.95604 60.3834 3.32086C60.0185 3.68567 59.5237 3.89062 59.0078 3.89062H1.94531C1.42938 3.89062 0.934585 3.68567 0.569769 3.32086C0.204952 2.95604 0 2.46124 0 1.94531ZM1.94531 24.6406H25.2891C25.805 24.6406 26.2998 24.4357 26.6646 24.0709C27.0294 23.706 27.2344 23.2112 27.2344 22.6953C27.2344 22.1794 27.0294 21.6846 26.6646 21.3198C26.2998 20.955 25.805 20.75 25.2891 20.75H1.94531C1.42938 20.75 0.934585 20.955 0.569769 21.3198C0.204952 21.6846 0 22.1794 0 22.6953C0 23.2112 0.204952 23.706 0.569769 24.0709C0.934585 24.4357 1.42938 24.6406 1.94531 24.6406ZM30.4766 41.5H1.94531C1.42938 41.5 0.934585 41.705 0.569769 42.0698C0.204952 42.4346 0 42.9294 0 43.4453C0 43.9612 0.204952 44.456 0.569769 44.8209C0.934585 45.1857 1.42938 45.3906 1.94531 45.3906H30.4766C30.9925 45.3906 31.4873 45.1857 31.8521 44.8209C32.2169 44.456 32.4219 43.9612 32.4219 43.4453C32.4219 42.9294 32.2169 42.4346 31.8521 42.0698C31.4873 41.705 30.9925 41.5 30.4766 41.5ZM65.57 44.82C65.2053 45.1843 64.7108 45.3889 64.1953 45.3889C63.6798 45.3889 63.1854 45.1843 62.8206 44.82L55.8532 37.8558C53.3398 39.6768 50.2325 40.4838 47.1507 40.116C44.0689 39.7481 41.2388 38.2324 39.2247 35.871C37.2105 33.5096 36.1602 30.4759 36.2831 27.3747C36.406 24.2734 37.693 21.3323 39.8876 19.1376C42.0823 16.943 45.0234 15.6559 48.1247 15.5331C51.2259 15.4102 54.2596 16.4605 56.621 18.4747C58.9824 20.4888 60.4981 23.3189 60.866 26.4007C61.2338 29.4825 60.4268 32.5898 58.6058 35.1032L65.57 42.0706C65.9343 42.4354 66.1389 42.9298 66.1389 43.4453C66.1389 43.9608 65.9343 44.4553 65.57 44.82ZM48.6328 36.3125C50.3 36.3125 51.9298 35.8181 53.3161 34.8918C54.7024 33.9656 55.7828 32.649 56.4208 31.1087C57.0589 29.5684 57.2258 27.8735 56.9005 26.2383C56.5753 24.6031 55.7724 23.101 54.5935 21.9221C53.4146 20.7432 51.9126 19.9404 50.2774 19.6151C48.6422 19.2898 46.9472 19.4568 45.4069 20.0948C43.8666 20.7328 42.55 21.8133 41.6238 23.1995C40.6975 24.5858 40.2031 26.2156 40.2031 27.8828C40.2031 30.1185 41.0912 32.2626 42.6721 33.8435C44.253 35.4244 46.3971 36.3125 48.6328 36.3125Z" fill="#D10C0C"/>
<path fill-rule="evenodd" clip-rule="evenodd" d="M0.569769 0.569769C0.204952 0.934585 0 1.42938 0 1.94531C0 2.46124 0.204952 2.95604 0.569769 3.32086C0.934585 3.68567 1.42938 3.89062 1.94531 3.89062H59.0078C59.5237 3.89062 60.0185 3.68567 60.3834 3.32086C60.7482 2.95604 60.9531 2.46124 60.9531 1.94531C60.9531 1.42938 60.7482 0.934585 60.3834 0.569769C60.0185 0.204952 59.5237 0 59.0078 0H1.94531C1.42938 0 0.934585 0.204952 0.569769 0.569769ZM25.2891 24.6406H1.94531C1.42938 24.6406 0.934585 24.4357 0.569769 24.0709C0.204952 23.706 0 23.2112 0 22.6953C0 22.1794 0.204952 21.6846 0.569769 21.3198C0.934585 20.955 1.42938 20.75 1.94531 20.75H25.2891C25.805 20.75 26.2998 20.955 26.6646 21.3198C27.0294 21.6846 27.2344 22.1794 27.2344 22.6953C27.2344 23.2112 27.0294 23.706 26.6646 24.0709C26.2998 24.4357 25.805 24.6406 25.2891 24.6406ZM1.94531 41.5H30.4766C30.9925 41.5 31.4873 41.705 31.8521 42.0698C32.2169 42.4346 32.4219 42.9294 32.4219 43.4453C32.4219 43.9612 32.2169 44.456 31.8521 44.8209C31.4873 45.1857 30.9925 45.3906 30.4766 45.3906H1.94531C1.42938 45.3906 0.934585 45.1857 0.569769 44.8209C0.204952 44.456 0 43.9612 0 43.4453C0 42.9294 0.204952 42.4346 0.569769 42.0698C0.934585 41.705 1.42938 41.5 1.94531 41.5Z" fill="#042A2B"/>
</svg>
