<svg width="51" height="70" viewBox="0 0 51 70" fill="none" xmlns="http://www.w3.org/2000/svg">
<path d="M22.75 16.6215C22.75 15.9253 23.0266 15.2576 23.5188 14.7653C24.0111 14.2731 24.6788 13.9965 25.375 13.9965C26.0712 13.9965 26.7389 14.2731 27.2312 14.7653C27.7234 15.2576 28 15.9253 28 16.6215V21.8715C28 22.5677 27.7234 23.2354 27.2312 23.7277C26.7389 24.2199 26.0712 24.4965 25.375 24.4965C24.6788 24.4965 24.0111 24.2199 23.5188 23.7277C23.0266 23.2354 22.75 22.5677 22.75 21.8715V16.6215ZM40.355 21.7525C39.8628 21.2609 39.1956 20.9848 38.5 20.9848C37.8044 20.9848 37.1372 21.2609 36.645 21.7525L32.9315 25.4625C32.6807 25.7045 32.4806 25.9941 32.3428 26.3143C32.2051 26.6345 32.1325 26.9789 32.1293 27.3274C32.1262 27.676 32.1924 28.0217 32.3242 28.3443C32.4561 28.667 32.6509 28.9602 32.8972 29.2068C33.1436 29.4533 33.4366 29.6484 33.7591 29.7805C34.0816 29.9127 34.4273 29.9793 34.7758 29.9764C35.1243 29.9735 35.4688 29.9013 35.7892 29.7639C36.1095 29.6264 36.3992 29.4266 36.6415 29.176L40.355 25.466C40.8466 24.9738 41.1227 24.3066 41.1227 23.611C41.1227 22.9154 40.8466 22.2482 40.355 21.756M14.105 21.756C13.6074 21.2923 12.9492 21.0399 12.2692 21.0519C11.5891 21.0639 10.9403 21.3394 10.4593 21.8203C9.97838 22.3013 9.70289 22.9501 9.69089 23.6302C9.67889 24.3102 9.93132 24.9684 10.395 25.466L14.105 29.1795C14.347 29.4303 14.6366 29.6304 14.9568 29.7682C15.277 29.9059 15.6214 29.9785 15.9699 29.9816C16.3185 29.9848 16.6642 29.9186 16.9868 29.7867C17.3095 29.6549 17.6027 29.4601 17.8493 29.2138C18.0958 28.9674 18.2909 28.6744 18.423 28.3519C18.5552 28.0294 18.6218 27.6837 18.6189 27.3352C18.616 26.9866 18.5438 26.6422 18.4064 26.3218C18.2689 26.0015 18.0691 25.7118 17.8185 25.4695L14.105 21.756ZM25.375 0C32.1049 0 38.5591 2.67343 43.3178 7.43217C48.0766 12.1909 50.75 18.6451 50.75 25.375C50.75 32.711 47.6 39.445 41.4295 45.472C41.1615 45.7339 40.9526 46.0502 40.817 46.3995L40.705 46.76L36.75 63.8925C36.3725 65.5266 35.4832 66.9976 34.2115 68.0911C32.9398 69.1846 31.3523 69.8436 29.68 69.972L29.0745 69.9965H21.6755C19.9985 69.9965 18.3652 69.4611 17.0136 68.4684C15.662 67.4756 14.6626 66.0773 14.161 64.477L14.0035 63.8925L10.0485 46.76C9.93631 46.2705 9.68608 45.8235 9.3275 45.472C3.4475 39.732 0.308 33.3515 0.0210001 26.418L0 25.375L0.0140007 24.535C0.232856 17.9548 3.00068 11.7173 7.73289 7.13987C12.4651 2.56244 18.7912 0.0034945 25.375 0.00350058M32.7775 57.7465H17.969L19.1205 62.7165C19.2407 63.2334 19.5147 63.7018 19.9065 64.0598C20.2983 64.4179 20.7894 64.6487 21.315 64.722L21.6755 64.75H29.0745C29.606 64.7494 30.1248 64.5874 30.5623 64.2856C30.9998 63.9837 31.3353 63.5562 31.5245 63.0595L31.6295 62.713L32.7775 57.7465ZM25.375 5.25C20.1707 5.24981 15.1687 7.2657 11.4189 10.8745C7.6691 14.4834 5.46312 19.4045 5.264 24.605L5.25 25.375L5.2745 26.3445C5.5405 31.815 8.0745 36.9145 12.9955 41.7165C13.9195 42.6195 14.6055 43.7325 14.994 44.9575L15.1655 45.5805L16.758 52.493H22.75V30.6215C22.75 29.9253 23.0266 29.2576 23.5188 28.7653C24.0111 28.2731 24.6788 27.9965 25.375 27.9965C26.0712 27.9965 26.7389 28.2731 27.2312 28.7653C27.7234 29.2576 28 29.9253 28 30.6215V52.4965H33.9885L35.5915 45.5805C35.8802 44.3247 36.4727 43.159 37.317 42.1855L37.7615 41.72C42.6755 36.9145 45.2095 31.822 45.4755 26.348L45.5 25.3785L45.486 24.6085C45.2886 19.4068 43.0834 14.4839 39.3335 10.8736C35.5835 7.26324 30.5805 5.24988 25.375 5.25Z" fill="#A41919"/>
<path fill-rule="evenodd" clip-rule="evenodd" d="M43.3178 7.43217C38.5591 2.67343 32.1049 0 25.375 0V0.00350058C18.7912 0.0034945 12.4651 2.56244 7.73289 7.13987C3.00068 11.7173 0.232856 17.9548 0.0140007 24.535L0 25.375L0.0210001 26.418C0.308 33.3515 3.4475 39.732 9.3275 45.472C9.68608 45.8235 9.93631 46.2705 10.0485 46.76L14.0035 63.8925L14.161 64.477C14.6626 66.0773 15.662 67.4756 17.0136 68.4684C18.3652 69.4611 19.9985 69.9965 21.6755 69.9965H29.0745L29.68 69.972C31.3523 69.8436 32.9398 69.1846 34.2115 68.0911C35.4832 66.9976 36.3725 65.5266 36.75 63.8925L40.705 46.76L40.817 46.3995C40.9526 46.0502 41.1615 45.7339 41.4295 45.472C47.6 39.445 50.75 32.711 50.75 25.375C50.75 18.6451 48.0766 12.1909 43.3178 7.43217ZM17.969 57.7465H32.7775L31.6295 62.713L31.5245 63.0595C31.3353 63.5562 30.9998 63.9837 30.5623 64.2856C30.1248 64.5874 29.606 64.7494 29.0745 64.75H21.6755L21.315 64.722C20.7894 64.6487 20.2983 64.4179 19.9065 64.0598C19.5147 63.7018 19.2407 63.2334 19.1205 62.7165L17.969 57.7465ZM11.4189 10.8745C15.1687 7.2657 20.1707 5.24981 25.375 5.25C30.5805 5.24988 35.5835 7.26324 39.3335 10.8736C43.0834 14.4839 45.2886 19.4068 45.486 24.6085L45.5 25.3785L45.4755 26.348C45.2095 31.822 42.6755 36.9145 37.7615 41.72L37.317 42.1855C36.4727 43.1589 35.8802 44.3247 35.5915 45.5805L33.9885 52.4965H28V30.6215C28 29.9253 27.7234 29.2576 27.2312 28.7653C26.7389 28.2731 26.0712 27.9965 25.375 27.9965C24.6788 27.9965 24.0111 28.2731 23.5188 28.7653C23.0266 29.2576 22.75 29.9253 22.75 30.6215V52.493H16.758L15.1655 45.5805L14.994 44.9575C14.6055 43.7325 13.9195 42.6195 12.9955 41.7165C8.0745 36.9145 5.5405 31.815 5.2745 26.3445L5.25 25.375L5.264 24.605C5.46312 19.4045 7.6691 14.4834 11.4189 10.8745Z" fill="#042A2B"/>
</svg>
