<svg width="89" height="68" viewBox="0 0 89 68" fill="none" xmlns="http://www.w3.org/2000/svg">
<path d="M85.6502 41.0457C84.6172 40.2487 83.4142 39.7017 82.1353 39.4474C80.8564 39.1931 79.5361 39.2385 78.2776 39.5799L76.6484 39.9577C84.8507 32.3191 88.9989 24.7484 88.9989 17.378C88.9989 7.79763 81.3096 0.000337699 71.8553 0.000337699C69.189 -0.0164021 66.5555 0.589419 64.1636 1.76975C61.7717 2.95009 59.6873 4.67247 58.0756 6.8003C56.4639 4.67247 54.3794 2.95009 51.9875 1.76975C49.5956 0.589419 46.9621 -0.0164021 44.2958 0.000337699C34.8416 0.000337699 27.1522 7.79763 27.1522 17.378C27.1522 21.6771 28.5211 25.8742 31.4098 30.3584C29.042 30.7243 26.8533 31.8403 25.1648 33.5431L16.412 42.3112H5.2796C3.87936 42.3112 2.53647 42.8685 1.54636 43.8603C0.556242 44.8522 0 46.1974 0 47.6001V62.7111C0 64.1138 0.556242 65.4591 1.54636 66.4509C2.53647 67.4428 3.87936 68 5.2796 68H44.4995C44.6851 68 44.87 67.9772 45.0501 67.932L69.1854 61.8876C69.2996 61.8574 69.4118 61.8195 69.521 61.7743L84.1606 55.5334L84.285 55.4767C85.5794 54.8292 86.6879 53.8622 87.5062 52.6669C88.3244 51.4716 88.8254 50.0873 88.9619 48.6444C89.0985 47.2015 88.8661 45.7475 88.2868 44.4195C87.7074 43.0914 86.8 41.9329 85.6502 41.0532V41.0457ZM44.2958 4.53365C46.7843 4.50039 49.226 5.21168 51.3086 6.57649C53.3912 7.94131 55.0199 9.89757 55.9864 12.1949C56.1568 12.6107 56.4468 12.9663 56.8195 13.2165C57.1922 13.4667 57.6307 13.6003 58.0793 13.6003C58.528 13.6003 58.9665 13.4667 59.3392 13.2165C59.7119 12.9663 60.0019 12.6107 60.1723 12.1949C61.1388 9.89757 62.7675 7.94131 64.8501 6.57649C66.9327 5.21168 69.3744 4.50039 71.8629 4.53365C78.6962 4.53365 84.4736 10.4156 84.4736 17.378C84.4736 25.0242 78.3719 33.6224 66.8246 42.2168L61.2169 43.5088C61.7762 42.0224 61.9672 40.4222 61.7737 38.8456C61.5801 37.269 61.0077 35.7629 60.1056 34.4566C59.2034 33.1502 57.9985 32.0825 56.594 31.345C55.1895 30.6076 53.6275 30.2224 52.0417 30.2224H36.8327C33.3218 25.5644 31.6776 21.4618 31.6776 17.378C31.6776 10.4156 37.455 4.53365 44.2958 4.53365ZM4.52537 62.7111V47.6001C4.52537 47.3997 4.60483 47.2075 4.74628 47.0658C4.88772 46.9241 5.07956 46.8445 5.2796 46.8445H15.0846V63.4667H5.2796C5.07956 63.4667 4.88772 63.3871 4.74628 63.2454C4.60483 63.1037 4.52537 62.9115 4.52537 62.7111ZM82.3165 51.3779L67.9107 57.5243L44.2204 63.4667H19.6099V45.5186L28.3628 36.7466C28.9917 36.1132 29.7399 35.6111 30.564 35.2693C31.388 34.9276 32.2716 34.753 33.1634 34.7557H52.0417C53.442 34.7557 54.7849 35.3129 55.775 36.3048C56.7651 37.2966 57.3213 38.6419 57.3213 40.0446C57.3213 41.4473 56.7651 42.7925 55.775 43.7844C54.7849 44.7762 53.442 45.3334 52.0417 45.3334H41.4826C40.8825 45.3334 40.3069 45.5722 39.8826 45.9973C39.4583 46.4224 39.2199 46.9989 39.2199 47.6001C39.2199 48.2013 39.4583 48.7778 39.8826 49.2029C40.3069 49.628 40.8825 49.8668 41.4826 49.8668H53.5502C53.7202 49.867 53.8898 49.8479 54.0555 49.8101L79.3222 43.9886L79.4127 43.9659C80.3637 43.7062 81.3769 43.8076 82.2578 44.2507C83.1387 44.6937 83.8251 45.4472 84.1852 46.3664C84.5453 47.2856 84.5537 48.3056 84.2088 49.2306C83.8639 50.1556 83.1899 50.9203 82.3165 51.3779Z" fill="#D10C0C"/>
<path d="M44.2958 4.53365C46.7843 4.50039 49.226 5.21168 51.3086 6.57649C53.3912 7.94131 55.0199 9.89757 55.9864 12.1949C56.1568 12.6107 56.4468 12.9663 56.8195 13.2165C57.1922 13.4667 57.6307 13.6003 58.0793 13.6003C58.528 13.6003 58.9665 13.4667 59.3392 13.2165C59.7119 12.9663 60.0019 12.6107 60.1723 12.1949C61.1388 9.89757 62.7675 7.94131 64.8501 6.57649C66.9327 5.21168 69.3744 4.50039 71.8629 4.53365C78.6962 4.53365 84.4736 10.4156 84.4736 17.378C84.4736 25.0242 78.3719 33.6224 66.8246 42.2168L61.2169 43.5088C61.7762 42.0224 61.9672 40.4222 61.7737 38.8456C61.5801 37.269 61.0077 35.7629 60.1056 34.4566C59.2034 33.1502 57.9985 32.0825 56.594 31.345C55.1895 30.6076 53.6275 30.2224 52.0417 30.2224H36.8327C33.3218 25.5644 31.6776 21.4618 31.6776 17.378C31.6776 10.4156 37.455 4.53365 44.2958 4.53365Z" fill="#D10C0C"/>
<path d="M85.6502 41.0457C84.6172 40.2487 83.4142 39.7017 82.1353 39.4474C80.8564 39.1931 79.5361 39.2385 78.2776 39.5799L76.6485 39.9577C84.8507 32.3191 88.9989 24.7484 88.9989 17.378C88.9989 7.79763 81.3096 0.000337699 71.8553 0.000337699C69.189 -0.0164021 66.5555 0.589419 64.1636 1.76975C61.7717 2.95009 59.6873 4.67247 58.0756 6.8003C56.4639 4.67247 54.3794 2.95009 51.9875 1.76975C49.5956 0.589419 46.9621 -0.0164021 44.2958 0.000337699C34.8416 0.000337699 27.1522 7.79763 27.1522 17.378C27.1522 21.6771 28.5211 25.8742 31.4098 30.3584C29.042 30.7243 26.8533 31.8403 25.1648 33.5431L16.412 42.3112H5.2796C3.87936 42.3112 2.53648 42.8685 1.54636 43.8603C0.556242 44.8522 0 46.1974 0 47.6001V62.7111C0 64.1138 0.556242 65.4591 1.54636 66.4509C2.53648 67.4428 3.87936 68 5.2796 68H44.4995C44.6851 68 44.87 67.9772 45.0501 67.932L69.1854 61.8876C69.2996 61.8574 69.4118 61.8195 69.521 61.7743L84.1606 55.5334L84.285 55.4767C85.5794 54.8292 86.6879 53.8622 87.5062 52.6669C88.3244 51.4716 88.8254 50.0873 88.9619 48.6444C89.0985 47.2015 88.8662 45.7475 88.2868 44.4195C87.7074 43.0914 86.8 41.9329 85.6502 41.0532V41.0457ZM44.2958 4.53365C46.7843 4.50039 49.226 5.21168 51.3086 6.57649C53.3912 7.94131 55.0199 9.89757 55.9864 12.1949C56.1568 12.6107 56.4468 12.9662 56.8195 13.2165C57.1922 13.4667 57.6307 13.6003 58.0793 13.6003C58.528 13.6003 58.9665 13.4667 59.3392 13.2165C59.7119 12.9662 60.0019 12.6107 60.1723 12.1949C61.1388 9.89757 62.7675 7.94131 64.8501 6.57649C66.9327 5.21168 69.3744 4.50039 71.8629 4.53365C78.6962 4.53365 84.4736 10.4156 84.4736 17.378C84.4736 25.0242 78.3719 33.6224 66.8246 42.2168L61.2169 43.5088C61.7762 42.0224 61.9673 40.4222 61.7737 38.8456C61.5801 37.269 61.0077 35.7629 60.1056 34.4566C59.2035 33.1502 57.9985 32.0825 56.594 31.345C55.1895 30.6076 53.6275 30.2224 52.0418 30.2224H36.8327C33.3218 25.5644 31.6776 21.4618 31.6776 17.378C31.6776 10.4156 37.455 4.53365 44.2958 4.53365ZM4.52537 62.7111V47.6001C4.52537 47.3997 4.60483 47.2075 4.74628 47.0658C4.88772 46.9241 5.07956 46.8445 5.2796 46.8445H15.0846V63.4667H5.2796C5.07956 63.4667 4.88772 63.3871 4.74628 63.2454C4.60483 63.1037 4.52537 62.9115 4.52537 62.7111ZM82.3165 51.3779L67.9107 57.5243L44.2204 63.4667H19.6099V45.5186L28.3628 36.7466C28.9917 36.1132 29.7399 35.6111 30.564 35.2693C31.388 34.9276 32.2716 34.753 33.1634 34.7557H52.0418C53.442 34.7557 54.7849 35.3129 55.775 36.3048C56.7651 37.2966 57.3214 38.6419 57.3214 40.0446C57.3214 41.4473 56.7651 42.7925 55.775 43.7844C54.7849 44.7762 53.442 45.3334 52.0418 45.3334H41.4826C40.8825 45.3334 40.3069 45.5722 39.8826 45.9973C39.4583 46.4224 39.2199 46.9989 39.2199 47.6001C39.2199 48.2013 39.4583 48.7778 39.8826 49.2029C40.3069 49.628 40.8825 49.8668 41.4826 49.8668H53.5502C53.7202 49.8669 53.8898 49.8479 54.0555 49.8101L79.3222 43.9886L79.4127 43.9659C80.3637 43.7062 81.3769 43.8076 82.2578 44.2507C83.1387 44.6937 83.8251 45.4472 84.1852 46.3664C84.5453 47.2856 84.5537 48.3056 84.2088 49.2306C83.8639 50.1556 83.19 50.9203 82.3165 51.3779Z" fill="#042A2B"/>
</svg>
