<svg width="24" height="24" viewBox="0 0 24 24" fill="none" xmlns="http://www.w3.org/2000/svg">
<path fill-rule="evenodd" clip-rule="evenodd" d="M11.973 3C9.59329 3.0003 7.31115 3.94576 5.62846 5.62846C3.94576 7.31115 3.0003 9.59329 3 11.973C3 15.9352 5.5875 19.2933 9.10986 20.505C9.55086 20.5601 9.71511 20.2845 9.71511 20.064V18.5227C7.23899 19.074 6.68887 17.3122 6.68887 17.3122C6.30299 16.266 5.69774 15.9903 5.69774 15.9903C4.872 15.4402 5.75174 15.4402 5.75174 15.4402C6.63262 15.4954 7.12874 16.3762 7.12874 16.3762C7.95449 17.7521 9.22011 17.3662 9.71624 17.1468C9.77024 16.5416 10.0459 16.1568 10.2664 15.9363C8.28412 15.7158 6.19274 14.9452 6.19274 11.4769C6.19274 10.4869 6.52237 9.71511 7.12874 9.05474C7.07249 8.88936 6.74287 7.95449 7.23899 6.74287C7.23899 6.74287 8.00962 6.52237 9.71511 7.67887C10.4306 7.45837 11.2024 7.40324 11.973 7.40324C12.7436 7.40324 13.5142 7.51349 14.2297 7.67887C15.9364 6.52349 16.707 6.74287 16.707 6.74287C17.202 7.95449 16.8712 8.88936 16.8161 9.10986C17.4224 9.77033 17.7567 10.6355 17.7521 11.532C17.7521 15.0004 15.6596 15.7158 13.6796 15.9363C14.0092 16.2108 14.2849 16.761 14.2849 17.5867V20.064C14.2849 20.2845 14.4491 20.559 14.8901 20.505C16.6747 19.9034 18.225 18.7558 19.3215 17.2247C20.418 15.6935 21.0052 13.8563 21 11.973C20.9448 7.01849 16.9275 3 11.973 3Z" fill="#042A2B"/>
</svg>
