<svg width="16" height="16" viewBox="0 0 16 16" fill="none" xmlns="http://www.w3.org/2000/svg">
<path d="M14.75 6.44399C14.7504 6.28272 14.7189 6.12296 14.6571 5.97398C14.5954 5.82499 14.5047 5.68974 14.3903 5.57605L10.1746 1.35974C10.0606 1.24569 9.92523 1.15522 9.77626 1.0935C9.62728 1.03177 9.46761 1 9.30635 1C9.14509 1 8.98541 1.03177 8.83644 1.0935C8.68746 1.15522 8.55211 1.24569 8.4381 1.35974L6.73047 3.06738L3.21698 4.38525C3.0152 4.46086 2.83688 4.58824 2.69993 4.7546C2.56299 4.92096 2.47224 5.12044 2.43681 5.33298L1.0103 13.8908C0.992443 13.9965 0.997852 14.1048 1.02615 14.2081C1.05445 14.3115 1.10497 14.4074 1.17416 14.4892C1.24336 14.5711 1.32958 14.6368 1.4268 14.6819C1.52402 14.7269 1.6299 14.7502 1.73706 14.7502C1.77819 14.7503 1.81925 14.747 1.85983 14.7403L10.4195 13.3132C10.6318 13.2774 10.8311 13.1866 10.9973 13.0498C11.1636 12.9131 11.2912 12.7351 11.3672 12.5337L12.6845 9.01957L14.3921 7.31193C14.5062 7.19811 14.5966 7.06279 14.658 6.91381C14.7194 6.76483 14.7507 6.60514 14.75 6.44399ZM10.0359 11.8836L3.88542 12.9087L5.91102 10.8831C6.35621 11.0841 6.85779 11.1225 7.32841 10.9918C7.79903 10.861 8.20887 10.5693 8.48656 10.1675C8.76426 9.76564 8.89222 9.27914 8.84815 8.79268C8.80408 8.30622 8.59078 7.85063 8.2454 7.50525C7.90001 7.15986 7.44442 6.94656 6.95797 6.9025C6.47151 6.85843 5.98501 6.98639 5.58318 7.26408C5.18135 7.54178 4.88965 7.95162 4.75888 8.42224C4.62812 8.89286 4.66656 9.39444 4.86753 9.83963L2.84193 11.8652L3.86701 5.71478L6.95451 4.55712L11.1929 8.79614L10.0359 11.8836ZM6.15655 8.98028C6.15655 8.85888 6.19255 8.74021 6.25999 8.63926C6.32744 8.53832 6.42331 8.45965 6.53547 8.41319C6.64763 8.36673 6.77104 8.35458 6.89011 8.37826C7.00918 8.40194 7.11855 8.4604 7.2044 8.54625C7.29024 8.63209 7.3487 8.74146 7.37239 8.86053C7.39607 8.9796 7.38392 9.10302 7.33746 9.21518C7.291 9.32734 7.21232 9.42321 7.11138 9.49065C7.01044 9.5581 6.89177 9.5941 6.77036 9.5941C6.60757 9.5941 6.45144 9.52943 6.33633 9.41432C6.22122 9.2992 6.15655 9.14308 6.15655 8.98028ZM12.0492 7.5685L8.18214 3.70145L9.30788 2.57571L13.1749 6.44276L12.0492 7.5685Z" fill="#042A2B"/>
</svg>
