<svg width="65" height="55" viewBox="0 0 65 55" fill="none" xmlns="http://www.w3.org/2000/svg">
<path d="M60 0H5C3.67392 0 2.40215 0.526784 1.46447 1.46447C0.526784 2.40215 0 3.67392 0 5V50C0 51.3261 0.526784 52.5979 1.46447 53.5355C2.40215 54.4732 3.67392 55 5 55H60C61.3261 55 62.5979 54.4732 63.5355 53.5355C64.4732 52.5979 65 51.3261 65 50V5C65 3.67392 64.4732 2.40215 63.5355 1.46447C62.5979 0.526784 61.3261 0 60 0ZM5 5H60V17.5H5V5ZM60 50H27.5V22.5H60V50Z" fill="#A41919"/>
<path d="M5 5H60V17.5H5V5Z" fill="#A41919"/>
<path d="M60 0H5C3.67392 0 2.40215 0.526784 1.46447 1.46447C0.526784 2.40215 0 3.67392 0 5V50C0 51.3261 0.526784 52.5979 1.46447 53.5355C2.40215 54.4732 3.67392 55 5 55H60C61.3261 55 62.5979 54.4732 63.5355 53.5355C64.4732 52.5979 65 51.3261 65 50V5C65 3.67392 64.4732 2.40215 63.5355 1.46447C62.5979 0.526784 61.3261 0 60 0ZM5 5H60V17.5H5V5ZM60 50H27.5V22.5H60V50Z" fill="#042A2B"/>
</svg>
