<?xml version="1.0" encoding="UTF-8"?>
<svg id="Layer_2" data-name="Layer 2" xmlns="http://www.w3.org/2000/svg" viewBox="0 0 711.67 98.97">
  <defs>
    <style>
      .cls-1 {
        fill: #a41919;
      }

      .cls-2 {
        fill: #4a4948;
      }
    </style>
  </defs>
  <g id="Layer_1-2" data-name="Layer 1">
    <g>
      <path class="cls-2" d="M11.77,49.88c0,6.05,1.66,10.81,4.99,14.27,3.32,3.46,7.82,5.19,13.47,5.19s10.01-1.71,13.27-5.14c3.26-3.42,4.89-8.2,4.89-14.32V8.67h11.77v41.2c0,6.05-1.2,11.29-3.59,15.71-2.39,4.42-5.84,7.82-10.33,10.18-4.49,2.36-9.83,3.54-16.01,3.54s-11.64-1.18-16.16-3.54c-4.52-2.36-8-5.75-10.43-10.18-2.43-4.42-3.64-9.66-3.64-15.71V8.67h11.77v41.2Z"/>
      <polygon class="cls-2" points="65.25 8.67 78.92 8.67 95.98 33.52 113.14 8.67 126.91 8.67 103.46 42.2 128.9 78.51 114.83 78.51 95.98 51.58 77.22 78.51 63.45 78.51 88.9 42.7 65.25 8.67"/>
      <g>
        <path class="cls-2" d="M183.83,49.88c0,6.05,1.66,10.81,4.99,14.27,3.33,3.46,7.81,5.19,13.47,5.19s10.01-1.71,13.27-5.14c3.26-3.42,4.89-8.2,4.89-14.32V8.67h11.77v41.21c0,6.05-1.2,11.29-3.59,15.71-2.39,4.42-5.84,7.82-10.33,10.18-4.49,2.36-9.83,3.54-16.01,3.54s-11.64-1.18-16.16-3.54c-4.52-2.36-8-5.75-10.43-10.18-2.43-4.42-3.64-9.66-3.64-15.71V8.67h11.77v41.21Z"/>
        <path class="cls-2" d="M245.19,8.67h11.77v69.84h-11.77V8.67Z"/>
      </g>
      <path class="cls-2" d="M311.29,9.47c5.25,0,10.08.87,14.47,2.59,4.39,1.73,8.2,4.16,11.42,7.28,3.23,3.13,5.74,6.82,7.53,11.07,1.8,4.26,2.69,8.91,2.69,13.97s-.9,9.7-2.69,13.92c-1.8,4.22-4.32,7.92-7.58,11.07-3.26,3.16-7.12,5.6-11.57,7.33-4.46,1.73-9.31,2.59-14.57,2.59h-28.33V9.47h28.63ZM311.59,69.23c3.39,0,6.54-.6,9.43-1.8,2.89-1.2,5.42-2.91,7.58-5.14,2.16-2.23,3.86-4.85,5.09-7.88,1.23-3.03,1.85-6.34,1.85-9.93s-.63-7-1.9-10.03c-1.26-3.03-2.99-5.67-5.19-7.93-2.19-2.26-4.77-3.99-7.73-5.19-2.96-1.2-6.17-1.8-9.63-1.8h-16.66v49.69h17.16Z"/>
      <path class="cls-2" d="M396,48.98c-.13-2.99-.82-5.54-2.05-7.63-1.23-2.1-2.94-3.72-5.14-4.89-2.19-1.16-4.72-1.75-7.58-1.75-3.19,0-5.97.73-8.33,2.19-2.36,1.46-4.21,3.51-5.54,6.14-1.33,2.63-2,5.7-2,9.23,0,3.79.71,7.08,2.15,9.88,1.43,2.79,3.42,4.96,5.99,6.49,2.56,1.53,5.5,2.3,8.83,2.3,5.92,0,10.91-2.1,14.97-6.29l6.09,6.09c-2.59,2.86-5.75,5.07-9.48,6.63-3.73,1.56-7.88,2.35-12.47,2.35-5.45,0-10.21-1.13-14.27-3.39-4.06-2.26-7.22-5.4-9.48-9.43-2.26-4.02-3.39-8.7-3.39-14.02s1.13-9.99,3.39-14.02c2.26-4.02,5.42-7.17,9.48-9.43,4.06-2.26,8.71-3.43,13.97-3.49,6.25,0,11.27,1.28,15.07,3.84,3.79,2.56,6.48,6.17,8.08,10.83,1.6,4.66,2.16,10.18,1.7,16.56h-42.4v-8.18h32.43Z"/>
      <path class="cls-2" d="M448.17,39.2c-2.33-1.4-4.87-2.51-7.63-3.34-2.76-.83-5.31-1.25-7.63-1.25s-4.13.43-5.59,1.3c-1.46.87-2.19,2.29-2.19,4.29,0,1.66.68,2.98,2.05,3.94,1.36.97,3.11,1.78,5.24,2.44,2.13.67,4.39,1.37,6.78,2.1,2.39.73,4.67,1.68,6.83,2.84,2.16,1.16,3.91,2.74,5.24,4.74,1.33,2,2,4.62,2,7.88,0,3.59-.95,6.54-2.84,8.83-1.89,2.29-4.39,3.99-7.48,5.09-3.09,1.1-6.44,1.65-10.03,1.65-3.86,0-7.72-.63-11.57-1.9-3.86-1.26-7.12-3.09-9.78-5.49l4.09-7.78c2.33,2.06,5.15,3.68,8.48,4.84,3.32,1.16,6.42,1.75,9.28,1.75,1.66,0,3.14-.22,4.44-.65,1.3-.43,2.33-1.08,3.09-1.95.76-.86,1.15-2,1.15-3.39,0-1.86-.67-3.32-2-4.39-1.33-1.06-3.06-1.95-5.19-2.64-2.13-.7-4.39-1.4-6.78-2.1s-4.64-1.61-6.73-2.74c-2.1-1.13-3.81-2.66-5.14-4.59-1.33-1.93-2-4.49-2-7.68,0-3.59.93-6.5,2.79-8.73,1.86-2.23,4.27-3.86,7.23-4.89,2.96-1.03,6.14-1.55,9.53-1.55s6.65.47,9.98,1.4c3.32.93,6.19,2.23,8.58,3.89l-4.19,8.08Z"/>
      <rect class="cls-2" x="464.84" y="26.33" width="11.37" height="52.98"/>
      <path class="cls-2" d="M511.73,25.93c4.65-.07,8.63.91,11.92,2.94,3.29,2.03,5.8,4.94,7.53,8.73,1.73,3.79,2.56,8.35,2.49,13.67.07,5.32-.75,9.89-2.44,13.72-1.7,3.83-4.16,6.75-7.38,8.78-3.23,2.03-7.13,3.04-11.72,3.04s-8.98-1.08-12.57-3.24c-3.59-2.16-6.39-5.17-8.38-9.03-2-3.86-2.99-8.31-2.99-13.37s.98-9.36,2.94-13.12c1.96-3.76,4.72-6.72,8.28-8.88,3.56-2.16,7.67-3.24,12.32-3.24ZM541.06,74.02c0,5.12-1.13,9.54-3.39,13.27-2.26,3.72-5.45,6.6-9.58,8.63-4.13,2.03-8.98,3.04-14.57,3.04-4.13,0-8.02-.62-11.67-1.85-3.66-1.23-7.12-2.94-10.38-5.14l4.89-7.88c2.53,1.86,5.12,3.31,7.78,4.34,2.66,1.03,5.62,1.55,8.88,1.55s6.34-.65,8.83-1.95,4.42-3.11,5.79-5.44c1.36-2.33,2.04-5.09,2.04-8.28V26.33h11.37v47.69ZM514.42,34.71c-2.99,0-5.65.72-7.98,2.15-2.33,1.43-4.14,3.41-5.44,5.94-1.3,2.53-1.98,5.42-2.04,8.68.07,3.26.75,6.15,2.04,8.68,1.3,2.53,3.09,4.51,5.39,5.94,2.3,1.43,4.97,2.14,8.03,2.14s5.64-.71,7.93-2.14c2.29-1.43,4.09-3.41,5.39-5.94,1.3-2.53,1.95-5.42,1.95-8.68s-.65-6.24-1.95-8.73c-1.3-2.5-3.09-4.46-5.39-5.89-2.3-1.43-4.94-2.15-7.93-2.15Z"/>
      <path class="cls-2" d="M557.02,26.33h11.47v52.98h-11.47V26.33ZM596.33,49.38c0-4.12-1.13-7.37-3.39-9.73-2.26-2.36-5.39-3.54-9.38-3.54-4.72.07-8.43,1.73-11.12,4.99-2.69,3.26-4.04,7.32-4.04,12.17h-3.19c0-6.58.93-11.87,2.79-15.86,1.86-3.99,4.51-6.9,7.93-8.73,3.42-1.83,7.47-2.74,12.12-2.74,4.12,0,7.67.83,10.63,2.49,2.96,1.66,5.22,4.01,6.78,7.03,1.56,3.03,2.35,6.67,2.35,10.92v32.92h-11.47v-29.93Z"/>
      <path class="cls-2" d="M659.89,48.98c-.13-2.99-.82-5.54-2.05-7.63-1.23-2.1-2.94-3.72-5.14-4.89-2.19-1.16-4.72-1.75-7.58-1.75-3.19,0-5.97.73-8.33,2.19-2.36,1.46-4.21,3.51-5.54,6.14-1.33,2.63-2,5.7-2,9.23,0,3.79.71,7.08,2.15,9.88,1.43,2.79,3.42,4.96,5.99,6.49,2.56,1.53,5.5,2.3,8.83,2.3,5.92,0,10.91-2.1,14.97-6.29l6.09,6.09c-2.59,2.86-5.75,5.07-9.48,6.63-3.73,1.56-7.88,2.35-12.47,2.35-5.45,0-10.21-1.13-14.27-3.39-4.06-2.26-7.22-5.4-9.48-9.43-2.26-4.02-3.39-8.7-3.39-14.02s1.13-9.99,3.39-14.02c2.26-4.02,5.42-7.17,9.48-9.43,4.06-2.26,8.71-3.43,13.97-3.49,6.25,0,11.27,1.28,15.07,3.84,3.79,2.56,6.48,6.17,8.08,10.83,1.6,4.66,2.16,10.18,1.7,16.56h-42.4v-8.18h32.43Z"/>
      <path class="cls-2" d="M681.84,26.33h11.47v52.98h-11.47V26.33ZM711.67,36.31c-3.79-.2-7.07.45-9.83,1.95-2.76,1.5-4.89,3.58-6.39,6.24-1.5,2.66-2.24,5.72-2.24,9.18l-3.19-.4c0-5.92.86-10.91,2.59-14.97,1.73-4.06,4.22-7.13,7.48-9.23,3.26-2.1,7.12-3.14,11.57-3.14v10.38Z"/>
      <path class="cls-2" d="M153.51,6.58l7.21-.83-15.41,71.52-7.22.83,15.42-71.52Z"/>
      <path class="cls-1" d="M475.19,15.72c.16-.22,3.22-3.89,4.23-5.09.15-.17.06-.44-.16-.5-.15-.04-.33-.09-.53-.16-.57-.17-.53-.5-.52-.78,0-.21.18-2.18.26-3.12.02-.23-.21-.4-.43-.32-.74.3-2.13.87-2.41.97-.38.15-.53.03-.61-.09-.04-.07-.25-.56-.42-.96-.1-.24-.42-.26-.56-.04-.52.88-1.53,2.59-1.82,2.95-.39.5-.74,0-.72-.41.01-.34.02-4.05.03-5.55,0-.26-.29-.4-.5-.25-.3.23-.65.5-.86.66-.4.31-.72.21-1.01-.13-.21-.25-1.42-1.92-2.04-2.79-.15-.21-.48-.16-.55.09-.3,1.02-.9,3-1.01,3.3-.16.41-.44.62-.91.45-.25-.09-.67-.23-1.03-.34-.25-.08-.48.15-.39.4.5,1.42,1.72,4.92,1.85,5.23.15.39,0,.97-.55.63-.39-.25-1.91-1.53-2.69-2.19-.2-.17-.5-.04-.51.22-.03.44-.07.97-.09,1.05-.03.14-.14.3-.55.28-.3-.01-1.79-.09-2.59-.13-.23-.01-.39.22-.3.44.39.87,1.19,2.67,1.27,2.87.1.26.24.56-.24.91-.17.13-.33.23-.45.32-.19.13-.18.41.02.52,1.34.8,5.44,3.26,5.66,3.42.26.19.34.38.29.69-.03.17-.26.63-.47,1.03-.13.24.09.52.36.45,1.41-.39,4.42-1.22,4.67-1.17.32.06.56,0,.78.77.18.64.49,3.39.59,4.34.02.18.19.3.36.27l.2-.03h.05s.2-.04.2-.04c.18-.03.29-.2.25-.38-.21-.93-.82-3.63-.86-4.29-.05-.81.2-.82.48-.99.22-.12,3.34-.33,4.79-.42.27-.02.39-.35.19-.54-.33-.31-.7-.67-.78-.82-.15-.28-.14-.48.05-.75Z"/>
    </g>
  </g>
</svg>