<?xml version="1.0" encoding="UTF-8"?>
<svg id="Layer_2" data-name="Layer 2" xmlns="http://www.w3.org/2000/svg" viewBox="0 0 179.39 50.77">
  <defs>
    <style>
      .cls-1 {
        fill: #d10c0c;
      }
    </style>
  </defs>
  <g id="Layer_1-2" data-name="Layer 1">
    <g>
      <path d="M0,48.63L9.52,0l15.53,35.16L41.13,0l8.55,48.63h-7l-4.37-27.3-13.39,29.38-13.01-29.41-4.86,27.33H0Z"/>
      <path d="M63.83,20.09v28.54h6.59v-28.54h-6.59Z"/>
      <path class="cls-1" d="M71.42,8.26c0,1.19-.42,2.21-1.26,3.04-.79.81-1.74,1.23-2.87,1.26-1.22.04-2.43-.45-3.28-1.34-.78-.82-1.18-1.82-1.18-2.99s.42-2.15,1.26-2.99,1.85-1.26,3.02-1.26,2.21.42,3.05,1.26c.84.82,1.26,1.83,1.26,3.02Z"/>
      <path d="M88.16,20.1l7.47,16.29,8.06-18.9,8.12,18.9,7.38-16.29h7.38l-14.94,30.67-7.94-18.37-8.03,18.37-14.91-30.67h7.41Z"/>
      <path d="M156.91,20.1h6.62v28.54h-6.62v-2.99c-2.71,2.54-5.64,3.81-8.76,3.81-3.95,0-7.21-1.43-9.79-4.28-2.56-2.91-3.84-6.54-3.84-10.9s1.28-7.84,3.84-10.69c2.56-2.85,5.76-4.28,9.61-4.28,3.32,0,6.3,1.37,8.94,4.1v-3.31ZM141.27,34.28c0,2.73.73,4.96,2.2,6.68,1.5,1.74,3.4,2.61,5.68,2.61,2.44,0,4.41-.84,5.92-2.52,1.5-1.74,2.26-3.94,2.26-6.62s-.75-4.88-2.26-6.62c-1.5-1.7-3.46-2.55-5.86-2.55-2.27,0-4.16.86-5.68,2.58-1.5,1.74-2.26,3.89-2.26,6.45Z"/>
      <path class="cls-1" d="M179.39,43.85c0,1.19-.42,2.21-1.26,3.04-.79.81-1.74,1.23-2.87,1.26-1.22.04-2.43-.45-3.28-1.34-.78-.82-1.18-1.82-1.18-2.99s.42-2.15,1.26-2.99,1.85-1.26,3.02-1.26,2.21.42,3.05,1.26c.84.82,1.26,1.83,1.26,3.02Z"/>
    </g>
  </g>
</svg>